<?xml version="1.0" encoding="utf-8"?>
<!-- Generator: Adobe Illustrator 19.1.0, SVG Export Plug-In . SVG Version: 6.00 Build 0)  -->
<svg version="1.1" id="猫_x2B_文字white480" xmlns="http://www.w3.org/2000/svg" xmlns:xlink="http://www.w3.org/1999/xlink"
x="0px" y="0px" width="180px" height="45px" viewBox="0 0 180 45" style="enable-background:new 0 0 180 45;"
xml:space="preserve">
<style type="text/css">
.st0{fill:#333333;}
.st1{fill:none;stroke:#333333;stroke-width:2;stroke-miterlimit:10;}
.st2{fill:#C9171E;stroke:#333333;stroke-miterlimit:10;}
</style>
<path class="st0" d="M58.5,17.3c2.4,0.6,5.1,2.5,5.1,6.3c0,2.2-0.8,3.8-2,4.9c-1.7,1.6-4.3,2.4-8.1,2.4c-2.1,0-3.6-0.2-4.6-0.3V6.1c1.4-0.3,3.3-0.5,5.4-0.5c3.1,0,5.1,0.6,6.6,1.8c1.2,1,1.9,2.4,1.9,4.3C62.7,14.2,61,16.3,58.5,17.3L58.5,17.3z M54.5,16.4c3.3,0,5.4-1.9,5.4-4.4v0c0-2.9-2.2-4.2-5.5-4.2c-1.4,0-2.3,0.1-2.8,0.2v8.5H54.5z M51.6,28.5c0.6,0.1,1.5,0.2,2.6,0.2c3.4,0,6.5-1.3,6.5-5.1c0-3.7-3.2-5.1-6.5-5.1h-2.6V28.5z"/>
<path class="st0" d="M80.3,29.9c-1,0.5-2.9,1.1-5.6,1.1c-5.2,0-8.3-3.7-8.3-9c0-5.6,3.1-9.6,7.9-9.6c5.5,0,6.9,5,6.9,8.1c0,0.6,0,1.1-0.1,1.5H69.1c0,4.9,2.8,6.8,6,6.8c2.2,0,3.6-0.5,4.7-0.9L80.3,29.9z M78.6,20.1c0-2.4-1-5.5-4.5-5.5c-3.3,0-4.7,3.1-5,5.5H78.6z"/>
<path class="st0" d="M99.6,30.7h-2.7V20.2c0-2.9-1-5.5-4.1-5.5c-2.3,0-4.7,2-4.7,5.1v10.9h-2.7V17.4c0-1.8-0.1-3.2-0.1-4.6h2.4l0.2,2.9h0.1c0.9-1.7,2.9-3.3,5.7-3.3c2.2,0,6,1.3,6,7.4V30.7z"/>
<path class="st0" d="M119.1,30.7h-2.7V20.2c0-2.9-1-5.5-4.1-5.5c-2.3,0-4.7,2-4.7,5.1v10.9h-2.7V17.4c0-1.8-0.1-3.2-0.1-4.6h2.4l0.2,2.9h0.1c0.9-1.7,2.9-3.3,5.7-3.3c2.2,0,6,1.3,6,7.4V30.7z"/>
<path class="st0" d="M125.7,9.7c-1,0-1.8-0.8-1.8-1.9c0-1,0.8-1.8,1.8-1.8c1.1,0,1.8,0.8,1.8,1.8C127.4,9,126.7,9.7,125.7,9.7zM127,30.7h-2.7V12.9h2.7V30.7z"/>
<path class="st0" d="M145,29.9c-1,0.5-2.9,1.1-5.6,1.1c-5.2,0-8.3-3.7-8.3-9c0-5.6,3.1-9.6,7.9-9.6c5.5,0,6.9,5,6.9,8.1c0,0.6,0,1.1-0.1,1.5h-12.1c0,4.9,2.8,6.8,6,6.8c2.2,0,3.6-0.5,4.7-0.9L145,29.9z M143.3,20.1c0-2.4-1-5.5-4.5-5.5c-3.3,0-4.7,3.1-5,5.5H143.3z"/>
<path class="st0" d="M148.4,19.7h8.9v2.1h-8.9V19.7z"/>
<path class="st0" d="M179,30.7h-2.9l-2.7-8.1h-8.7l-2.6,8.1h-2.8l8.2-24.9h3.1L179,30.7z M172.9,20.4l-2.4-7.4c-0.5-1.7-0.9-3.3-1.3-4.7h-0.1c-0.3,1.5-0.8,3.1-1.2,4.6l-2.5,7.5H172.9z"/>
<path class="st0" d="M41.5,29.7c-0.4-1.5-0.7-2.7-0.8-3.1L40.5,26c-0.4-2-2.7-5.5-2.6-6.2c0.1-0.9-1.9-7.1-2.1-10.3c-0.6-0.7-6.2,4.6-8.1,7.1c0,0-0.1,0-0.2,0.1c0.1,0.1,0.1,0.1,0.1,0.1s-0.6,0.7-1.5,1.2c1.7,1.1,2.1,3.4,2.1,3.4s-1.5,0.3-2.9-0.2c0.3,2-0.7,4-0.7,4s-1.7-0.9-2.6-2.6c-1.1,1.9-3.3,2.8-3.3,2.8s-0.9-2.3-0.2-4.3c-1.8,0.5-3.7-0.2-3.7-0.2s0.7-2.1,2.4-3.2
c-1.3-0.7-2.1-2-2.1-2s0.2-0.1,0.4-0.2c-2.5-2.7-6.8-6.4-7.2-5.8c-0.2,3.3-2,9.4-1.9,10.3C6.5,20.5,4.3,24,3.9,26l-0.2,0.6C3.6,27,3.2,28.3,2.7,30c3,7.8,10.5,13.4,19.3,13.4C31.1,43.4,38.7,37.7,41.5,29.7z M13,17.7c0,0.1,0,0.3-0.1,0.4c0,0.1-0.1,0.3-0.1,0.4c0,0.1-0.1,0.2-0.1,0.3c-0.1,0.1-0.1,0.2-0.1,0.3c0,0,0,0.1-0.1,0.1c0,0,0,0,0,0.1l0,0c-0.2,0.2-0.2,0.4-0.2,0.4c-0.2,0.3-0.5,0.3-0.8,0.2c-0.3-0.2-0.3-0.5-0.2-0.8c0,0,0,0,0-0.1c0,0,0.1-0.1,0.3-0.3l0,0l0,0c0,0,0,0,0-0.1c0-0.1,0.1-0.1,0.1-0.2c0-0.1,0.1-0.1,0.1-0.2c0-0.1,0.1-0.2,0.1-0.3c0-0.1,0.1-0.2,0.1-0.3c0-0.1,0-0.2,0-0.4c0-0.1,0-0.2,0-0.4c0-0.1,0-0.3,0-0.4c0-0.1,0-0.3,0-0.4c0-0.1-0.1-0.3-0.1-0.4c0-0.1-0.1-0.3-0.1-0.4c0-0.1-0.1-0.3-0.1-0.4l-0.2-0.4c-0.1-0.1-0.1-0.3-0.2-0.4c-0.1-0.3-0.3-0.5-0.4-0.8c-0.1-0.3-0.3-0.5-0.4-0.7c-0.2-0.2-0.3-0.4-0.4-0.6c-0.1-0.2-0.3-0.3-0.4-0.5c-0.1-0.2-0.2-0.3-0.3-0.4C9.2,10.7,9,10.6,9,10.6s0.1,0.1,0.3,0.3c0.1,0.1,0.2,0.2,0.4,0.3c0.1,0.1,0.3,0.3,0.5,0.5c0.2,0.2,0.3,0.4,0.5,0.6c0.2,0.2,0.4,0.4,0.5,0.7c0.2,0.2,0.4,0.5,0.5,0.8c0.1,0.1,0.2,0.3,0.2,0.4l0.2,0.4c0.1,0.1,0.1,0.3,0.2,0.4c0.1,0.2,0.1,0.3,0.2,0.5c0,0.2,0.1,0.3,0.1,0.5c0,0.2,0.1,0.3,0.1,0.5c0,0.2,0,0.3,0.1,0.5c0,0.2,0,0.3,0,0.5C13,17.4,13,17.6,13,17.7z M35.2,10.9c-0.1,0.1-0.2,0.2-0.3,0.4c-0.1,0.1-0.3,0.3-0.4,0.5c-0.1,0.2-0.3,0.4-0.4,0.6c-0.1,0.2-0.3,0.5-0.4,0.7c-0.1,0.3-0.3,0.5-0.4,0.8c-0.1,0.1-0.1,0.3-0.2,0.4l-0.2,0.4c-0.1,0.1-0.1,0.3-0.1,0.4c0,0.1-0.1,0.3-0.1,0.4c0,0.1-0.1,0.3-0.1,0.4c0,0.1,0,0.3,0,0.4c0,0.1,0,0.3,0,0.4c0,0.1,0,0.3,0,0.4
c0,0.1,0,0.2,0,0.4c0,0.1,0.1,0.2,0.1,0.3c0,0.1,0.1,0.2,0.1,0.3c0,0.1,0.1,0.2,0.1,0.2c0,0.1,0.1,0.1,0.1,0.2c0,0,0,0.1,0,0.1l0,0l0,0c0.2,0.2,0.3,0.3,0.3,0.3c0.2,0.2,0.2,0.6-0.1,0.8c-0.2,0.2-0.6,0.2-0.8-0.1c0,0,0,0,0-0.1c0,0-0.1-0.1-0.2-0.4l0,0c0,0,0,0,0-0.1c0,0,0-0.1-0.1-0.1c0-0.1-0.1-0.2-0.1-0.3c0-0.1-0.1-0.2-0.1-0.3c0-0.1-0.1-0.2-0.1-0.4c0-0.1,0-0.3-0.1-0.4c0-0.1,0-0.3,0-0.4c0-0.1,0-0.3,0-0.5c0-0.2,0-0.3,0.1-0.5c0-0.2,0.1-0.3,0.1-0.5c0-0.2,0.1-0.3,0.1-0.5c0-0.2,0.1-0.3,0.2-0.5c0.1-0.2,0.1-0.3,0.2-0.4l0.2-0.4c0.1-0.1,0.2-0.3,0.2-0.4c0.2-0.3,0.3-0.5,0.5-0.8c0.2-0.2,0.4-0.5,0.5-0.7c0.2-0.2,0.4-0.4,0.5-0.6c0.2-0.2,0.3-0.3,0.5-0.5C34.9,11.1,35,11,35.2,10.9c0.2-0.2,0.3-0.3,0.3-0.3S35.3,10.7,35.2,10.9z"/>
<circle class="st1" cx="21.9" cy="22.7" r="20.9"/>
<path class="st2" d="M16.3,18.4c-2.4,1.3-3.5,4.1-3.5,4.1s2.4,1,4.9,0.5c-1.1,2.7-0.1,5.8-0.1,5.8s3.1-1,4.7-3.4c1,2.3,3.2,3.7,3.2,3.7s1.6-2.5,1.3-5.3c1.9,0.8,3.9,0.5,3.9,0.5s-0.4-3.1-2.5-4.7c1.3-0.5,2.1-1.5,2.1-1.5s-0.1,0-0.1-0.1c-0.4-0.4-1.9-1.4-3.6-1.4c-1,0.1-2,0.5-2.6,1c1.1-1.7,1.1-3.8,0-5.6c-0.1-0.2-0.3-0.3-0.5-0.3c-0.2,0-0.2,0.1-0.1,0.3c1.2,1.9,1,4.4-0.4,6.1c0.1-0.7,0.2-2.3-0.7-3.6c-1.1-1.7-3.4-2.2-3.4-2.2s-0.3,1.3,0,2.6c0,0,0,0,0,0c-1.8-0.6-3.8,0-4.7,0.4c-0.4,0.1-0.6,0.3-0.6,0.3S14.6,17.2,16.3,18.4z M23,18.4 M22.8,18.4"/>
<path class="st0" d="M49.6,42.7h-1.4l-0.8-2.6h-2.7l-0.8,2.6h-1.4l2.7-8.8h1.6L49.6,42.7z M47.1,39.1l-0.7-2.3c-0.2-0.6-0.3-1.2-0.4-1.7h0c-0.1,0.5-0.3,1.2-0.4,1.7l-0.7,2.3H47.1z"/>
<path class="st0" d="M51.4,35.3c-0.5,0-0.8-0.3-0.8-0.8c0-0.5,0.3-0.8,0.8-0.8c0.5,0,0.8,0.3,0.8,0.8C52.2,35,51.9,35.3,51.4,35.3zM52,42.7h-1.3v-6.4H52V42.7z"/>
<path class="st0" d="M59.1,42.7h-1.6l-1.8-2.9l-0.5,0.6v2.3h-1.3v-9.3h1.3v5.8h0c0.1-0.2,0.3-0.5,0.5-0.7l1.6-2.1h1.6L56.5,39L59.1,42.7z"/>
<path class="st0" d="M65.3,39.5c0,2.4-1.5,3.4-3,3.4c-1.7,0-2.9-1.2-2.9-3.3c0-2.1,1.3-3.4,3-3.4C64.2,36.2,65.3,37.5,65.3,39.5zM62.4,37.2c-1.1,0-1.6,1.2-1.6,2.3c0,1.2,0.6,2.3,1.6,2.3c1,0,1.6-1.1,1.6-2.3C63.9,38.4,63.5,37.2,62.4,37.2z"/>
<path class="st0" d="M73,38c0.9,0.2,1.8,1,1.8,2.2c0,0.9-0.4,1.5-0.8,1.8c-0.6,0.6-1.6,0.8-3,0.8c-0.8,0-1.4-0.1-1.8-0.1V34c0.5-0.1,1.3-0.2,2.1-0.2c2.7,0,3.2,1.3,3.2,2.2C74.5,36.8,74,37.6,73,38L73,38z M71.4,37.5c1.1,0,1.7-0.6,1.7-1.4c0-1.1-0.9-1.3-1.7-1.3c-0.4,0-0.7,0-0.9,0.1v2.7H71.4z M70.6,41.7c0.2,0,0.5,0,0.8,0c1.1,0,2-0.5,2-1.6c0-1.2-1-1.6-2-1.6h-0.8
V41.7z"/>
<path class="st0" d="M80.8,42.4c-0.5,0.2-1.2,0.4-2,0.4c-1.9,0-3-1.3-3-3.2c0-1.9,1.1-3.4,2.9-3.4c1.8,0,2.5,1.5,2.5,3.1c0,0.2,0,0.4,0,0.6h-4c0,1.4,0.9,2,1.9,2c0.7,0,1.2-0.1,1.6-0.3L80.8,42.4z M79.9,38.9c0-0.8-0.3-1.7-1.3-1.7c-1,0-1.4,1-1.5,1.7H79.9z"/>
<path class="st0" d="M87.7,42.7h-1.3V39c0-0.9-0.3-1.7-1.2-1.7c-0.7,0-1.4,0.5-1.4,1.6v3.8h-1.3v-4.6c0-0.7,0-1.2,0-1.8h1.2l0.1,0.9h0c0.3-0.5,1-1.1,1.9-1.1c1,0,2.1,0.6,2.1,2.6V42.7z"/>
<path class="st0" d="M90,35.3c-0.5,0-0.8-0.3-0.8-0.8c0-0.5,0.3-0.8,0.8-0.8c0.5,0,0.8,0.3,0.8,0.8C90.8,35,90.5,35.3,90,35.3zM90.7,42.7h-1.3v-6.4h1.3V42.7z"/>
<path class="st0" d="M97.5,36.3l-1.5,4.4c-0.8,2.1-1.3,3.3-2,4c-0.6,0.5-1.2,0.8-1.5,0.8l-0.3-1.1c1.4-0.5,1.9-1.8,1.9-2c0-0.1,0-0.2-0.1-0.3l-2.2-5.9h1.5l1.2,3.6c0.1,0.4,0.3,0.9,0.3,1.3h0c0.1-0.4,0.2-0.8,0.3-1.3l1-3.6H97.5z"/>
<path class="st0" d="M102.9,41.2c0,0.5,0,1.1,0.1,1.5h-1.2l-0.1-0.7h0c-0.4,0.5-1,0.9-1.8,0.9c-1.2,0-1.9-0.9-1.9-1.9c0-1.6,1.4-2.4,3.6-2.4c0-0.5,0-1.4-1.3-1.4c-0.6,0-1.1,0.2-1.5,0.4l-0.3-0.9c0.5-0.3,1.2-0.5,2.1-0.5c1.9,0,2.4,1.2,2.4,2.6V41.2zM101.6,39.5c-1.1,0-2.3,0.2-2.3,1.3c0,0.7,0.4,1,0.9,1c0.7,0,1.3-0.6,1.3-1.3V39.5z"/>
<path class="st0" d="M113.3,42.7H112v-3.6c0-1.1-0.3-1.8-1.2-1.8c-0.6,0-1.2,0.6-1.2,1.5v3.9h-1.3v-3.8c0-0.9-0.3-1.6-1.1-1.6c-0.6,0-1.3,0.5-1.3,1.5v3.9h-1.3v-4.6c0-0.7,0-1.2,0-1.8h1.2l0.1,0.9h0c0.3-0.5,0.9-1.1,1.9-1.1c0.8,0,1.4,0.5,1.7,1.2h0c0.4-0.7,1.1-1.2,2-1.2c0.9,0,2,0.6,2,2.7V42.7z"/>
<path class="st0" d="M119.4,41.2c0,0.5,0,1.1,0.1,1.5h-1.2l-0.1-0.7h0c-0.4,0.5-1,0.9-1.8,0.9c-1.2,0-1.9-0.9-1.9-1.9c0-1.6,1.4-2.4,3.6-2.4c0-0.5,0-1.4-1.3-1.4c-0.6,0-1.1,0.2-1.5,0.4l-0.3-0.9c0.5-0.3,1.2-0.5,2.1-0.5c1.9,0,2.4,1.2,2.4,2.6V41.2zM118.1,39.5c-1.1,0-2.3,0.2-2.3,1.3c0,0.7,0.4,1,0.9,1c0.7,0,1.3-0.6,1.3-1.3V39.5z"/>
<path class="st0" d="M120.4,36.9c0.1-0.9,0.3-2.2,0.4-3.2l0.6-0.1c-0.1,1.1-0.4,2.5-0.6,3.2L120.4,36.9z"/>
<path class="st0" d="M127.9,37.5c-0.3-0.2-0.7-0.4-1.2-0.4c-0.6,0-0.9,0.3-0.9,0.8c0,0.4,0.3,0.7,1.1,1c1.1,0.4,1.6,1,1.6,1.9c0,1.2-0.9,2-2.4,2c-0.7,0-1.3-0.2-1.7-0.4l0.3-1c0.3,0.2,0.9,0.4,1.5,0.4c0.7,0,1.1-0.3,1.1-0.8c0-0.5-0.3-0.8-1-1.1c-1.1-0.5-1.6-1.1-1.6-1.8c0-1.1,0.9-1.9,2.2-1.9c0.6,0,1.2,0.2,1.5,0.4L127.9,37.5z"/>
<path class="st0" d="M132.4,34c0.5-0.1,1.2-0.2,2.1-0.2c1.1,0,1.9,0.2,2.4,0.7c0.5,0.4,0.8,1.1,0.8,1.9c0,2.1-1.7,2.9-3.3,2.9c-0.3,0-0.5,0-0.8-0.1v3.5h-1.3V34z M133.7,38.2c0.2,0.1,0.4,0.1,0.8,0.1c1.2,0,2-0.6,2-1.8c0-1.1-0.7-1.6-1.8-1.6c-0.4,0-0.7,0-0.9,0.1V38.2z"/>
<path class="st0" d="M144.6,39.5c0,2.4-1.5,3.4-3,3.4c-1.7,0-2.9-1.2-2.9-3.3c0-2.1,1.3-3.4,3-3.4C143.4,36.2,144.6,37.5,144.6,39.5z M141.7,37.2c-1.1,0-1.6,1.2-1.6,2.3c0,1.2,0.6,2.3,1.6,2.3c1,0,1.6-1.1,1.6-2.3C143.2,38.4,142.8,37.2,141.7,37.2z"/>
<path class="st0" d="M149.1,37.5c-0.1,0-0.2,0-0.4,0c-0.9,0-1.5,0.7-1.5,1.8v3.4h-1.3v-4.4c0-0.7,0-1.4,0-1.9h1.2l0,1.2h0c0.3-0.8,1-1.3,1.7-1.3c0.1,0,0.2,0,0.3,0V37.5z"/>
<path class="st0" d="M150.4,35.2l1.3-0.4v1.6h1.5v1h-1.5v3.2c0,0.8,0.2,1.2,0.8,1.2c0.3,0,0.4,0,0.6-0.1l0,1c-0.2,0.1-0.6,0.2-1,0.2c-0.5,0-1-0.2-1.3-0.5c-0.3-0.3-0.5-0.9-0.5-1.7v-3.3h-0.9v-1h0.9V35.2z"/>
<path class="st0" d="M154.5,42.7v-8.8h4.6V35h-3.3v2.7h3v1.1h-3v3.9H154.5z"/>
<path class="st0" d="M166,39.5c0,2.4-1.5,3.4-3,3.4c-1.7,0-2.9-1.2-2.9-3.3c0-2.1,1.3-3.4,3-3.4C164.8,36.2,166,37.5,166,39.5zM163.1,37.2c-1.1,0-1.6,1.2-1.6,2.3c0,1.2,0.6,2.3,1.6,2.3c1,0,1.6-1.1,1.6-2.3C164.6,38.4,164.2,37.2,163.1,37.2z"/>
<path class="st0" d="M168.7,42.7h-1.3v-9.3h1.3V42.7z"/>
<path class="st0" d="M171,35.3c-0.5,0-0.8-0.3-0.8-0.8c0-0.5,0.3-0.8,0.8-0.8c0.5,0,0.8,0.3,0.8,0.8C171.8,35,171.5,35.3,171,35.3z
M171.7,42.7h-1.3v-6.4h1.3V42.7z"/>
<path class="st0" d="M178.9,39.5c0,2.4-1.5,3.4-3,3.4c-1.7,0-2.9-1.2-2.9-3.3c0-2.1,1.3-3.4,3-3.4C177.8,36.2,178.9,37.5,178.9,39.5z M176,37.2c-1.1,0-1.6,1.2-1.6,2.3c0,1.2,0.6,2.3,1.6,2.3c1,0,1.6-1.1,1.6-2.3C177.5,38.4,177.1,37.2,176,37.2z"/>
</svg>
