<?xml version="1.0" encoding="utf-8"?>
<!-- Generator: Adobe Illustrator 19.2.1, SVG Export Plug-In . SVG Version: 6.00 Build 0)  -->
<svg version="1.1" id="レイヤー_1" xmlns="http://www.w3.org/2000/svg" xmlns:xlink="http://www.w3.org/1999/xlink" x="0px"
	 y="0px" width="100px" height="100px" viewBox="0 0 100 100" style="enable-background:new 0 0 100 100;" xml:space="preserve">
<path d="M41.3,40c-0.7,3-2.1,8-3.7,13h7.7C43.4,47,42,43,41.3,40L41.3,40z"/>
<path d="M10,10v80h80V10H10z M48.9,66l-2.3-7H36.3l-2.2,7H28c0.4-1,9-30,9.4-31h8.1l9.9,31H48.9z M67,66h-7V43h7V66z M67,39h-7v-6h7
	V39z"/>
<path d="M97,3v94H3V3H97 M100,0H0v100h100V0L100,0z"/>
</svg>
