<?xml version="1.0" encoding="utf-8"?>
<!-- Generator: Adobe Illustrator 19.2.1, SVG Export Plug-In . SVG Version: 6.00 Build 0)  -->
<svg version="1.1" id="layor1" xmlns="http://www.w3.org/2000/svg" xmlns:xlink="http://www.w3.org/1999/xlink" x="0px" y="0px"
	 width="100px" height="100px" viewBox="0 0 100 100" style="enable-background:new 0 0 100 100;" xml:space="preserve">
<path d="M85.5,15.9c1,0,1.9,0.9,1.9,1.9v64.4c0,1-0.9,1.9-1.9,1.9h-71c-1,0-1.9-0.9-1.9-1.9V17.8c0-1,0.9-1.9,1.9-1.9H85.5
	 M85.5,3.3h-71C6.5,3.3,0,9.9,0,17.8v64.4c0,8,6.5,14.5,14.5,14.5h71c8,0,14.5-6.5,14.5-14.5V17.8C100,9.9,93.5,3.3,85.5,3.3
	L85.5,3.3z"/>
<g>
	<polygon points="45,65 29,65 29,37 45,37 45,28 19,28 19,73 45,73 	"/>
	<polygon points="55,28 55,37 71,37 71,65 55,65 55,73 81,73 81,28 	"/>
</g>
</svg>
