<?xml version="1.0" encoding="utf-8"?>
<!-- Generator: Adobe Illustrator 19.2.1, SVG Export Plug-In . SVG Version: 6.00 Build 0)  -->
<svg version="1.1" id="レイヤー_1" xmlns="http://www.w3.org/2000/svg" xmlns:xlink="http://www.w3.org/1999/xlink" x="0px"
	 y="0px" width="100px" height="100px" viewBox="0 0 100 100" style="enable-background:new 0 0 100 100;" xml:space="preserve">
<path d="M48.3,28.6"/>
<path d="M32.2,21.3c-0.4,4-3.3,6-9,6h-9c-2.4,0-4.6-0.6-6.3-1.8c-1.8-1.2-2.7-2.6-2.7-4.2v-15c0-1.6,0.9-3,2.6-4.2
	c1.7-1.2,3.9-1.8,6.4-1.8h9c5.7,0,8.6,2,9,6h-4.5c-0.4-2-1.9-3-4.5-3h-4.5c-1.2,0-2.3,0.3-3.2,0.9c-0.9,0.6-1.3,1.3-1.3,2.1v15
	c0,0.8,0.4,1.5,1.3,2.1c0.9,0.6,1.9,0.9,3.2,0.9h4.5c2.7,0,4.2-1,4.5-3H32.2z"/>
<path d="M63.7,6.4h-4.5c-0.4-2-1.8-3-4.3-3c-1.6,0-2.8,0.3-3.6,0.8c-0.8,0.5-1.2,1.3-1.2,2.3c0,0.7,0.4,1.5,1.3,2.1l9.6,7.1
	c1.8,1.3,2.6,2.7,2.6,4.2v1.5c0,1.6-0.9,3-2.6,4.2s-3.9,1.8-6.4,1.8h-4.5c-3,0-5.2-0.5-6.8-1.5c-1.5-1-2.3-2.5-2.3-4.5h4.5
	c0,0.2,0,0.4,0,0.5c0,0.8,0.5,1.4,1.4,1.9c0.9,0.4,2,0.6,3.1,0.6c1.6,0,2.7-0.3,3.4-0.8c0.7-0.5,1.1-1.3,1.1-2.2
	c0-0.8-0.4-1.5-1.3-2.1l-9.6-7.1c-1.8-1.3-2.6-2.7-2.6-4.2V6.4c0-1.6,0.9-3,2.6-4.2c1.8-1.2,3.9-1.8,6.4-1.8h4.5
	C60.4,0.3,63.4,2.4,63.7,6.4z"/>
<path d="M95.2,6.4h-4.5c-0.4-2-1.8-3-4.3-3c-1.6,0-2.8,0.3-3.6,0.8c-0.8,0.5-1.2,1.3-1.2,2.3c0,0.7,0.4,1.5,1.3,2.1l9.6,7.1
	c1.8,1.3,2.6,2.7,2.6,4.2v1.5c0,1.6-0.9,3-2.6,4.2s-3.9,1.8-6.4,1.8h-4.5c-3,0-5.2-0.5-6.8-1.5c-1.5-1-2.3-2.5-2.3-4.5h4.5
	c0,0.2,0,0.4,0,0.5c0,0.8,0.5,1.4,1.4,1.9c0.9,0.4,2,0.6,3.1,0.6c1.6,0,2.7-0.3,3.4-0.8c0.7-0.5,1.1-1.3,1.1-2.2
	c0-0.8-0.4-1.5-1.3-2.1l-9.6-7.1c-1.8-1.3-2.6-2.7-2.6-4.2V6.4c0-1.6,0.9-3,2.6-4.2c1.8-1.2,3.9-1.8,6.4-1.8h4.5
	C91.9,0.3,94.9,2.4,95.2,6.4z"/>
<path d="M0,32v72h100V32H0z M44,58.1c0,3.5-3.1,8-9.5,13.5l-0.7,0.5c-6.4,5.5-9.7,9.9-9.7,13V86h20v5H14v-5.3c0-3.5,3.4-8,9.9-13.5
	l0.6-0.5c6.4-5.5,9.6-10,9.6-13.5v-2.5c0-1.4-0.3-2.4-1.3-3.4s-2-1.3-3.4-1.3h-5c-3.1,0-4.7,1-5,5h-5c0.8-7,4.1-10,10-10h10
	c2.7,0,4.9,0.8,6.9,2.8c2,2,2.8,4.2,2.8,6.9V58.1z M63,91H53V81h10V91z M82,91H72V56h-5v-5.4L77.3,46H82V91z"/>
</svg>
