<?xml version="1.0" encoding="utf-8"?>
<!-- Generator: Adobe Illustrator 19.2.1, SVG Export Plug-In . SVG Version: 6.00 Build 0)  -->
<svg version="1.1" id="レイヤー_1" xmlns="http://www.w3.org/2000/svg" xmlns:xlink="http://www.w3.org/1999/xlink" x="0px"
	 y="0px" width="100px" height="100px" viewBox="0 0 100 100" style="enable-background:new 0 0 100 100;" xml:space="preserve">
<path d="M39.3,11h-6.6V7c0-1.2-0.1-1.9-0.2-2.2c-0.1-0.3-0.5-0.4-0.9-0.4c-0.5,0-0.9,0.2-1,0.5c-0.1,0.3-0.2,1.1-0.2,2.2v10.6
	c0,1.1,0.1,1.8,0.2,2.2c0.1,0.3,0.5,0.5,1,0.5c0.5,0,0.8-0.2,1-0.5c0.2-0.3,0.2-1.1,0.2-2.4v-2.9h6.6v0.9c0,2.4-0.2,4-0.6,5
	c-0.4,1-1.2,1.8-2.5,2.6s-2.8,1.1-4.7,1.1c-1.9,0-3.5-0.3-4.8-0.9s-2.1-1.5-2.5-2.6s-0.6-2.8-0.6-5V9.1c0-1.6,0.1-2.9,0.2-3.7
	S24.4,3.8,25,3c0.6-0.8,1.5-1.4,2.6-1.8c1.1-0.4,2.4-0.7,3.8-0.7c1.9,0,3.5,0.3,4.8,1c1.3,0.7,2.1,1.5,2.5,2.5
	c0.4,1,0.6,2.6,0.6,4.7V11z"/>
<path d="M57.6,7.9h-6.1V6.2c0-0.8-0.1-1.3-0.2-1.5c-0.2-0.2-0.4-0.3-0.8-0.3c-0.4,0-0.7,0.1-0.9,0.4c-0.2,0.3-0.3,0.7-0.3,1.3
	c0,0.8,0.1,1.3,0.3,1.7c0.2,0.4,0.8,0.8,1.9,1.4c2.9,1.6,4.8,2.8,5.5,3.9c0.8,1,1.1,2.6,1.1,4.9c0,1.6-0.2,2.8-0.6,3.6
	S56.2,23,55,23.5c-1.2,0.5-2.6,0.8-4.2,0.8c-1.8,0-3.3-0.3-4.5-0.9c-1.2-0.6-2.1-1.4-2.4-2.3c-0.4-0.9-0.6-2.2-0.6-4v-1.5h6.1v2.8
	c0,0.9,0.1,1.4,0.3,1.6c0.2,0.2,0.5,0.4,0.9,0.4s0.8-0.2,1-0.5c0.2-0.3,0.3-0.8,0.3-1.4c0-1.3-0.2-2.2-0.6-2.6
	c-0.4-0.4-1.4-1.1-3.1-2.1c-1.6-1-2.7-1.7-3.2-2.1c-0.5-0.4-1-1-1.3-1.8c-0.3-0.8-0.5-1.8-0.5-3c0-1.7,0.2-3,0.7-3.8
	c0.5-0.8,1.3-1.4,2.4-1.9c1.1-0.5,2.4-0.7,4-0.7c1.7,0,3.2,0.2,4.4,0.7c1.2,0.5,2,1.1,2.4,1.9c0.4,0.8,0.6,2,0.6,3.8V7.9z"/>
<path d="M76.1,7.9H70V6.2c0-0.8-0.1-1.3-0.2-1.5c-0.2-0.2-0.4-0.3-0.8-0.3c-0.4,0-0.7,0.1-0.9,0.4c-0.2,0.3-0.3,0.7-0.3,1.3
	c0,0.8,0.1,1.3,0.3,1.7c0.2,0.4,0.8,0.8,1.9,1.4c2.9,1.6,4.8,2.8,5.5,3.9c0.8,1,1.1,2.6,1.1,4.9c0,1.6-0.2,2.8-0.6,3.6
	s-1.2,1.4-2.4,1.9c-1.2,0.5-2.6,0.8-4.2,0.8c-1.8,0-3.3-0.3-4.5-0.9c-1.2-0.6-2.1-1.4-2.4-2.3c-0.4-0.9-0.6-2.2-0.6-4v-1.5h6.1v2.8
	c0,0.9,0.1,1.4,0.3,1.6c0.2,0.2,0.5,0.4,0.9,0.4s0.8-0.2,1-0.5c0.2-0.3,0.3-0.8,0.3-1.4c0-1.3-0.2-2.2-0.6-2.6
	c-0.4-0.4-1.4-1.1-3.1-2.1c-1.6-1-2.7-1.7-3.2-2.1c-0.5-0.4-1-1-1.3-1.8c-0.3-0.8-0.5-1.8-0.5-3c0-1.7,0.2-3,0.7-3.8
	c0.5-0.8,1.3-1.4,2.4-1.9c1.1-0.5,2.4-0.7,4-0.7c1.7,0,3.2,0.2,4.4,0.7c1.2,0.5,2,1.1,2.4,1.9c0.4,0.8,0.6,2,0.6,3.8V7.9z"/>
<path d="M48.3,28.6"/>
<path d="M14,29v71h71V29H14z M48,54.9c0,3.5-3,8-8.8,13.5l-0.5,0.5c-5.8,5.5-8.6,9.9-8.6,13V82h18v5H21v-4.6c0-3.5,2.8-8,8.6-13.5
	l0.6-0.5c5.8-5.5,8.7-10,8.7-13.5v-2.5c0-1.4-0.6-2.8-1.5-3.8c-0.9-1-2.1-1.7-3.3-1.7h-4.5c-2.8,0-4.3,2-4.5,5h-4.5
	c0.7-6,3.7-10,9-10h9c2.4,0,4.7,1.2,6.5,3.2s2.8,4.5,2.8,7.2V54.9z M61,87h-9V77h9V87z M77,87h-9V52h-5v-4.6l9-5.4h5V87z"/>
</svg>
