<?xml version="1.0" encoding="utf-8"?>
<!-- Generator: Adobe Illustrator 19.2.1, SVG Export Plug-In . SVG Version: 6.00 Build 0)  -->
<svg version="1.1" id="レイヤー_1" xmlns="http://www.w3.org/2000/svg" xmlns:xlink="http://www.w3.org/1999/xlink" x="0px"
	 y="0px" width="100px" height="100px" viewBox="0 0 100 100" style="enable-background:new 0 0 100 100;" xml:space="preserve">
<g>
	<path d="M32.4,40H28v21h4.3c5.5,0,8.3-4.2,8.3-11.1C40.7,44.2,38.1,40,32.4,40z"/>
	<path d="M10,10v80h80V10H10z M32.4,66H22V35h10.7c9.4,0,14.5,5.8,14.5,14.8C47.2,59.9,41.8,66,32.4,66z M73.5,66H68
		c-1.5-7-2.8-12-3.3-15h0c-0.5,3-2.1,9-3.6,15h-5.5l-5.9-23h5.9c1.7,9,2.8,14,3.2,17h0.1c0.5-3,1.8-9,3.6-17h4.9
		c1.6,7,3.2,14,3.5,16h0c0.4-2,1.1-6,3.4-16h5.5L73.5,66z"/>
</g>
<path d="M97,3v94H3V3H97 M100,0H0v100h100V0L100,0z"/>
</svg>
