<?xml version="1.0" encoding="utf-8"?>
<!-- Generator: Adobe Illustrator 19.2.1, SVG Export Plug-In . SVG Version: 6.00 Build 0)  -->
<svg version="1.1" id="レイヤー_1" xmlns="http://www.w3.org/2000/svg" xmlns:xlink="http://www.w3.org/1999/xlink" x="0px"
	 y="0px" width="100px" height="100px" viewBox="0 0 100 100" style="enable-background:new 0 0 100 100;" xml:space="preserve">
<path d="M10,10v80h80V10H10z M45,40H31v8h13v5H31v13h-6V35h20V40z M70.9,66h-5.5c-1.5-7-2.8-12-3.3-15h0c-0.5,3-2.1,9-3.6,15h-5.5
	L47,43h5.9c1.7,9,2.8,14,3.2,17h0.1c0.5-3,1.8-9,3.6-17h4.9c1.6,7,3.2,14,3.5,16h0c0.4-2,1.1-6,3.4-16h5.5L70.9,66z"/>
<path d="M97,3v94H3V3H97 M100,0H0v100h100V0L100,0z"/>
</svg>
