<?xml version="1.0" encoding="utf-8"?>
<!-- Generator: Adobe Illustrator 19.2.1, SVG Export Plug-In . SVG Version: 6.00 Build 0)  -->
<svg version="1.1" id="レイヤー_1" xmlns="http://www.w3.org/2000/svg" xmlns:xlink="http://www.w3.org/1999/xlink" x="0px"
	 y="0px" width="100px" height="100px" viewBox="0 0 100 100" style="enable-background:new 0 0 100 100;" xml:space="preserve">
<path d="M49.3,28.6"/>
<path d="M0.3,27.5v-27h7.5v12h7.5v-12h7.5v27h-7.5v-12H7.8v12H0.3z"/>
<path d="M34,27.5v-24h-7.5v-3H49v3h-7.5v24H34z"/>
<path d="M51.5,27.5v-27h1.2l10.9,12.8L74.5,0.5h2.6v27h-5.1V11l-9,10.5L54.1,11v16.5H51.5z"/>
<path d="M82.9,27.5v-27h6.6v24h9.9v3H82.9z"/>
<g>
	<polygon points="50,69 50,50.4 33.5,69 	"/>
	<path d="M0,32v68h100V32H0z M66,74h-5v15H50V74H28v-4.8L50,44h11v25h5V74z"/>
</g>
</svg>
