<?xml version="1.0" encoding="utf-8"?>
<!-- Generator: Adobe Illustrator 19.2.1, SVG Export Plug-In . SVG Version: 6.00 Build 0)  -->
<svg version="1.1" id="レイヤー_1" xmlns="http://www.w3.org/2000/svg" xmlns:xlink="http://www.w3.org/1999/xlink" x="0px"
	 y="0px" width="100px" height="100px" viewBox="0 0 100 100" style="enable-background:new 0 0 100 100;" xml:space="preserve">
<path d="M28.6,0.8v22.8H22V14h-2v9.6h-6.6V0.8H20v8.1h2V0.8H28.6z"/>
<path d="M46.7,0.8v4.6h-3.9v18.2h-6.6V5.3h-3.9V0.8H46.7z"/>
<path d="M70.7,0.8v22.8h-5.8l0-15.4l-2.3,15.4h-4.1l-2.4-15l0,15h-5.8V0.8h8.5c0.3,1.4,0.5,3,0.8,4.8l0.9,5.8l1.5-10.6H70.7z"/>
<path d="M82.6,0.8V19h4v4.6H76V0.8H82.6z"/>
<path d="M49.3,28.6"/>
<g>
	<path d="M13,29v71h73V29H13z M64,75h-4v16H50V75H31v-5.8L50,43h10v26h4V75z"/>
	<polygon points="50,69 50,49.2 35.6,69 	"/>
</g>
</svg>
