<?xml version="1.0" encoding="utf-8"?>
<!-- Generator: Adobe Illustrator 19.2.1, SVG Export Plug-In . SVG Version: 6.00 Build 0)  -->
<svg version="1.1" id="レイヤー_1" xmlns="http://www.w3.org/2000/svg" xmlns:xlink="http://www.w3.org/1999/xlink" x="0px"
	 y="0px" width="100px" height="100px" viewBox="0 0 100 100" style="enable-background:new 0 0 100 100;" xml:space="preserve">
<g>
	<path d="M12.4,76.7L9,91.6c-0.9,3.9-1.5,6.2-5.8,6.2c-0.9,0-1.6-0.1-2-0.2l0.7-3c0.4,0.1,0.6,0.1,0.9,0.1c1,0,1.3-0.4,1.7-1.9
		l3.7-15.9H12.4z M8.8,74.3l0.8-3.6h4.2L13,74.3H8.8z"/>
	<path d="M33.5,79.5c0,3.5-1.3,7.8-4.5,10.3l4.6,2.9l-2.5,2.7l-5.8-3.8c-1,0.3-2,0.4-3.2,0.4c-5.7,0-8.2-3.3-8.2-8
		c0-4.8,3.1-12.4,11.3-12.4C31,71.6,33.5,75.1,33.5,79.5z M18.4,84.2c0,3.1,1.4,4.7,4.1,4.7c4.7,0,6.5-5.7,6.5-9.5
		c0-3-1.2-4.8-4.2-4.8C20.2,74.7,18.4,80.4,18.4,84.2z"/>
	<path d="M48.9,87.3c-0.5,2.2-0.8,3.6-1,4.4h-4.1c0.1-0.5,0.2-1.2,0.3-1.6c-1.3,1.5-2.7,1.9-4.7,1.9c-3.1,0-4.6-2.2-3.8-5.6l2.3-9.7
		H42l-2.2,9.3c-0.4,1.6-0.1,2.8,1.7,2.8c1.8,0,3-1,3.7-3.8l1.9-8.4h4.2L48.9,87.3z"/>
	<path d="M56.2,85.2c0,0.2-0.1,0.7-0.1,1.2c0,1.4,0.5,2.7,2.5,2.7c1.9,0,2.6-1,3-1.9h4.2C64.6,90,62.5,92,58.2,92
		c-4.5,0-6.3-2.4-6.3-6c0-3.5,2.2-9.5,8.9-9.5c4.1,0,6.1,2.4,6.1,5.3c0,0.8-0.1,1.9-0.5,3.3H56.2z M62.7,82.7c0.1-0.4,0.1-0.7,0.1-1
		c0-1.3-0.6-2.3-2.5-2.3c-2.2,0-3.2,1.9-3.5,3.4H62.7z"/>
	<path d="M79.6,80.5c-3.3-0.1-5,1.2-5.8,4.5l-1.6,6.8h-4.2l2.3-9.9c0.6-2.5,0.9-4,1.1-5.1h4.1c0,0.5-0.3,1.7-0.5,2.7
		c1.1-1.7,2.6-3,5.6-3L79.6,80.5z"/>
	<path d="M86.5,76.7c0.4,5.8,0.8,9.9,0.7,11.5h0c0.8-1.7,3.2-6.9,5.7-11.5h4.4l-9.1,16.2c-2.5,4.5-4.1,4.9-7.5,4.9
		c-0.3,0-1.5-0.1-1.9-0.1l0.7-3.2c0.4,0.1,1,0.1,1.4,0.1c1.6,0,2.3-0.8,3.1-2.5l-1.9-15.3H86.5z"/>
</g>
<path d="M62.9,60.2C45.7,63.7,29,52.6,25.5,35.4c-1.4-7-0.4-14,2.5-20c-6.8,7.2-10.1,17.5-8,28c3.5,17.2,20.2,28.3,37.4,24.8
	c10.1-2,18.1-8.7,22.3-17.3C75.4,55.5,69.6,58.9,62.9,60.2z"/>
<path d="M67.8,44.4C54,47.1,40.6,38.2,37.9,24.5c-1.1-5.6-0.3-11.2,2-16c-5.4,5.8-8.1,14-6.4,22.4c2.8,13.7,16.1,22.6,29.9,19.9
	c8.1-1.6,14.5-7,17.9-13.9C77.7,40.6,73.1,43.3,67.8,44.4z"/>
<path d="M72.2,31.1c-11,2.2-21.7-4.9-23.9-15.9c-0.9-4.5-0.2-9,1.6-12.8c-4.3,4.6-6.5,11.2-5.1,17.9c2.2,11,12.9,18.1,23.9,15.9
	c6.5-1.3,11.6-5.6,14.3-11.1C80.2,28.1,76.5,30.2,72.2,31.1z"/>
</svg>
