<?xml version="1.0" encoding="utf-8"?>
<!-- Generator: Adobe Illustrator 19.2.1, SVG Export Plug-In . SVG Version: 6.00 Build 0)  -->
<svg version="1.1" id="レイヤー_1" xmlns="http://www.w3.org/2000/svg" xmlns:xlink="http://www.w3.org/1999/xlink" x="0px"
	 y="0px" width="100px" height="100px" viewBox="0 0 100 100" style="enable-background:new 0 0 100 100;" xml:space="preserve">
<path d="M50,16.6c-26.8,0-48.6,15.2-48.6,34c0,18.8,21.8,34,48.6,34s48.6-15.2,48.6-34C98.6,31.8,76.8,16.6,50,16.6z M49.8,81.7
	c-24.1,0-43.6-13.9-43.6-30.9s19.6-30.9,43.6-30.9c24.1,0,43.6,13.9,43.6,30.9S73.9,81.7,49.8,81.7z"/>
<path d="M72.2,43.8c-2.8,0-4.3,2.6-5,6c-0.8,4,0,6,2.7,6c3.9,0,5.2-5.8,5.2-8.2C75.2,45,74.2,43.8,72.2,43.8z"/>
<path d="M31.3,43.8c-2.8,0-4.3,2.6-5,6c-0.8,4,0,6,2.7,6c3.9,0,5.2-5.8,5.2-8.2C34.2,45,33.3,43.8,31.3,43.8z"/>
<path d="M49.8,22.8c-22.5,0-40.7,12.6-40.7,28s18.3,28,40.7,28c22.5,0,40.7-12.6,40.7-28S72.3,22.8,49.8,22.8z M29.5,59.7
	c-2.5,0-4-0.8-4.6-2.3L23,67h-4.9l4.5-21.2c0.6-2.6,1-4.8,1.1-5.8h4.8c-0.1,1-0.2,1.8-0.4,2.6c1-1.4,2.6-2.7,5.4-2.7
	c3.7,0,5.8,2.7,5.8,7C39.3,52.3,36.4,59.7,29.5,59.7z M51.9,59l2.5-11.7c0.4-2.1,0.2-3.5-2.1-3.5c-2.4,0-3.7,1.7-4.4,4.8L45.7,59
	h-4.9l5.7-26h4.9l-2.1,9.9c1.2-1.6,3-2.8,5.6-2.8c3.4,0,5.6,2,4.5,7L56.7,59H51.9z M70.5,59.7c-2.5,0-4-0.8-4.6-2.3l-2,9.5H59
	l4.5-21.2c0.6-2.6,1-4.8,1.1-5.8h4.8c-0.1,1-0.2,1.8-0.4,2.6c1-1.4,2.6-2.7,5.4-2.7c3.7,0,5.8,2.7,5.8,7
	C80.2,52.3,77.3,59.7,70.5,59.7z"/>
</svg>
