<?xml version="1.0" encoding="utf-8"?>
<!-- Generator: Adobe Illustrator 19.2.1, SVG Export Plug-In . SVG Version: 6.00 Build 0)  -->
<svg version="1.1" id="レイヤー_1" xmlns="http://www.w3.org/2000/svg" xmlns:xlink="http://www.w3.org/1999/xlink" x="0px"
	 y="0px" width="100px" height="100px" viewBox="0 0 100 100" style="enable-background:new 0 0 100 100;" xml:space="preserve">
<g>
	<path d="M39.3,40H35v9h4.2c3.3,0,5.4-1.2,5.4-4.7C44.6,41.3,42.4,40,39.3,40z"/>
	<path d="M10,10v80h80V10H10z M39.5,54H35v12h-6V35h11.1c5.8,0,10.9,3,10.9,9.3C51,50.6,46.2,54,39.5,54z M63.3,66.4
		c-5.7,0-9.3-2.4-9.8-7.4h6c0.3,2,1.7,3,4,3c2.2,0,3.3-0.9,3.3-2.4c0-1.5-1.3-2.1-4.9-3.1c-6.2-1.8-7.7-3.9-7.7-7.3
		c0-2.9,1.8-7.2,8.9-7.2c6.2,0,8.8,3,9,7h-5.9c-0.2-1-0.9-2.5-3.4-2.5c-1.7,0-2.6,0.7-2.6,2.1c0,1.3,0.9,1.9,4.3,2.7
		c6.3,1.7,8.3,4,8.3,7.7C72.8,63.8,68.8,66.4,63.3,66.4z"/>
</g>
<path d="M97,3v94H3V3H97 M100,0H0v100h100V0L100,0z"/>
</svg>
