<?xml version="1.0" encoding="utf-8"?>
<!-- Generator: Adobe Illustrator 19.2.1, SVG Export Plug-In . SVG Version: 6.00 Build 0)  -->
<svg version="1.1" id="レイヤー_1" xmlns="http://www.w3.org/2000/svg" xmlns:xlink="http://www.w3.org/1999/xlink" x="0px"
	 y="0px" width="100px" height="100px" viewBox="0 0 100 100" style="enable-background:new 0 0 100 100;" xml:space="preserve">
<path d="M49.3,28.6"/>
<g>
	<path d="M19.7,3l-2.3,10.1l3.5,12.7h-6.1c-0.7-2.3-1.4-5-2-8.3c-0.2,1.4-0.4,3-0.7,4.6l-0.6,3.7H5l2.4-12.7L5,3h6.4
		c0.1,0.6,0.3,1.7,0.7,3.1c0.3,1.1,0.5,2.1,0.7,3.1L14.2,3H19.7z"/>
	<path d="M38.8,3v22.8h-6.6v-9.6h-2v9.6h-6.6V3h6.6v8.1h2V3H38.8z"/>
	<path d="M56.6,3v4.6h-3.9v18.2h-6.6V7.5h-3.9V3H56.6z"/>
	<path d="M80.4,3v22.8h-5.8l0-15.4l-2.3,15.4h-4.1l-2.4-15l0,15h-5.8V3h8.5c0.3,1.4,0.5,3,0.8,4.8l0.9,5.8L71.8,3H80.4z"/>
	<path d="M91.5,3v18.2h4v4.6H84.9V3H91.5z"/>
</g>
<g>
	<g>
		<path d="M64.2,87.2c0.8,0.7,1.8,1,3.1,1c1.3,0,2.4-0.5,3.3-1.4c0.9-0.9,1.3-2,1.3-3.2V68.2l-9.4,16.2
			C62.8,85.6,63.4,86.6,64.2,87.2z"/>
	</g>
	<g>
		<path d="M67.4,56.4c-1.3,0-2.2,0.4-3.2,1.3c-0.9,0.9-1.2,2-1.2,3.2v15.4l9.4-16.2C71.7,57.7,69.9,56.4,67.4,56.4z"/>
	</g>
	<g>
		<path d="M79.6,39.9L49.7,29v0l-0.6,0l-0.6,0v0L19.2,39.9L4.6,100h45h0.1h45L79.6,39.9z M31.9,92.7h-9.6V61h-4.8v-4.6l9.6-4.5h4.8
			V92.7z M48,92.7h-9.6v-9.1H48V92.7z M78.9,90c-1.9,1.8-4.1,2.7-6.7,2.7h-9.6c-2.6,0-4.9-0.9-6.8-2.7c-1.9-1.8-2.9-3.9-2.9-6.4V61
			c0-2.5,1-4.6,2.9-6.4c1.9-1.8,4.2-2.7,6.8-2.7h9.6c2.6,0,4.9,0.9,6.7,2.7c1.9,1.8,2.8,3.9,2.8,6.4v22.6
			C81.8,86.1,80.8,88.2,78.9,90z"/>
	</g>
</g>
</svg>
